<svg xmlns="http://www.w3.org/2000/svg" xmlns:xlink="http://www.w3.org/1999/xlink"><symbol id="sprite-arrow-down" fill="none" viewBox="0 0 12 12"><path stroke="#fff" d="m11.46 8.18-5.46-4.9-5.45 4.9"/></symbol><use xlink:href="#sprite-arrow-down" width="12" height="12"/><view id="sprite-arrow-down-view" viewBox="0 0 12 12"/><symbol id="sprite-arrow" fill="none" viewBox="0 0 8 8"><g clip-path="url(#a)"><path d="m.8 7.2 6.4-6.4m0 0h-6.36m6.36 0v6.36"/></g><defs><clipPath id="a"><path d="M0 0h8v8h-8z"/></clipPath></defs></symbol><use xlink:href="#sprite-arrow" width="8" height="8" y="12"/><view id="sprite-arrow-view" viewBox="0 12 8 8"/><symbol id="sprite-cross" fill="none" viewBox="0 0 20 20"><path stroke="#fff" stroke-linecap="round" stroke-linejoin="round" d="m2 18 8-8m0 0 8-8m-8 8 8 8m-8-8-8-8"/></symbol><use xlink:href="#sprite-cross" width="20" height="20" y="20"/><view id="sprite-cross-view" viewBox="0 20 20 20"/><symbol id="sprite-menu" fill="none" viewBox="0 0 20 20"><path stroke="#fff" stroke-linecap="round" d="M1 6h18m-18 4h18m-18 4h18"/></symbol><use xlink:href="#sprite-menu" width="20" height="20" y="40"/><view id="sprite-menu-view" viewBox="0 40 20 20"/><symbol id="sprite-pin_stroke" fill="none" viewBox="0 0 22 22"><path fill="#f41706" fill-rule="evenodd" d="M11 1c4.14 0 7.5 3.2 7.5 7.15v.43c0 1.58-.52 3.12-1.48 4.4l-6 8.01a.02.02 0 0 1-.04 0l-6-8a7.3 7.3 0 0 1-1.48-4.41v-.43c0-3.95 3.36-7.15 7.5-7.15m-1.33 4.76c-.85.39-1.46 1.11-1.66 1.98s0 1.76.59 2.46a3.1 3.1 0 0 0 2.4 1.09 3.1 3.1 0 0 0 2.4-1.1 2.8 2.8 0 0 0 .6-2.45 3 3 0 0 0-1.67-1.98 3.2 3.2 0 0 0-2.66 0" clip-rule="evenodd"/></symbol><use xlink:href="#sprite-pin_stroke" width="22" height="22" y="60"/><view id="sprite-pin_stroke-view" viewBox="0 60 22 22"/></svg>